<svg viewBox="0 0 16 16" xmlns="http://www.w3.org/2000/svg" xmlns:xlink="http://www.w3.org/1999/xlink" width="16.000000" height="16.000000" fill="none" customFrame="#000000">
	<defs>
		<clipPath id="clipPath_0">
			<rect width="16.000000" height="16.000000" x="0.000000" y="0.000000" fill="rgb(255,255,255)" />
		</clipPath>
	</defs>
	<rect id="告警" width="16.000000" height="16.000000" x="0.000000" y="0.000000" fill="rgb(255,255,255)" fill-opacity="0" />
	<g id="消息状态" customFrame="url(#clipPath_0)">
		<rect id="消息状态" width="16.000000" height="16.000000" x="0.000000" y="0.000000" />
		<path id="三角形" d="M8.84214 1.4962L14.8875 12.6222C15.1356 13.0787 14.9596 13.6463 14.4945 13.8898C14.3562 13.9621 14.202 14 14.0453 14L1.95453 14C1.42736 14 1 13.5805 1 13.0631C1 12.9093 1.03857 12.7579 1.1123 12.6222L7.15767 1.4962C7.40575 1.03963 7.98394 0.866906 8.4491 1.11041C8.6162 1.19789 8.75302 1.33218 8.84214 1.4962Z" fill="rgb(255,136,0)" fill-opacity="0" fill-rule="evenodd" />
		<path id="三角形" d="M14.8875 12.6222L8.84214 1.4962C8.75302 1.33218 8.6162 1.19789 8.4491 1.11041C7.98394 0.866906 7.40575 1.03963 7.15767 1.4962L1.1123 12.6222C1.03857 12.7579 1 12.9093 1 13.0631C1 13.5805 1.42736 14 1.95453 14L14.0453 14C14.202 14 14.3562 13.9621 14.4945 13.8898C14.9596 13.6463 15.1356 13.0787 14.8875 12.6222ZM13.9547 13L7.99991 2.04069L2.04509 13L13.9547 13Z" fill="rgb(255,136,0)" fill-rule="evenodd" />
		<path id="路径" d="M8 12C7.58594 12 7.25 11.6641 7.25 11.25C7.25 10.8359 7.58594 10.5 8 10.5C8.41406 10.5 8.75 10.8359 8.75 11.25C8.75 11.6641 8.41406 12 8 12Z" fill="rgb(255,136,0)" fill-rule="evenodd" />
		<rect id="矩形" width="1.000000" height="4.500000" x="7.500000" y="5.000000" rx="0.500000" fill="rgb(255,136,0)" />
		<rect id="矩形" width="0.000000" height="3.500000" x="8.000000" y="5.500000" rx="0.500000" stroke="rgb(255,136,0)" stroke-width="1" />
	</g>
</svg>
