<svg viewBox="0 0 16 16" xmlns="http://www.w3.org/2000/svg" xmlns:xlink="http://www.w3.org/1999/xlink" width="16.000000" height="16.000000" fill="none">
	<rect id="svg 3" width="16.000000" height="16.000000" x="0.000000" y="0.000000" />
	<path id="矢量 334" d="M14.6075 12.3839L11.3475 9.12366C11.3475 9.12366 10.9504 8.79247 11.2191 8.37266C11.4856 7.74009 11.6341 7.04565 11.6341 6.31598C11.6341 3.38 9.25401 1 6.31795 1C5.81182 1 5.3238 1.07409 4.86076 1.20779C4.46406 1.34448 4.74583 1.63273 4.74583 1.63273L7.19493 4.08183C7.98145 4.86835 7.98145 6.14358 7.19493 6.9301L6.95754 7.16744C6.1711 7.95394 4.89586 7.95394 4.10924 7.16744L1.62162 4.67979C1.62162 4.67979 1.36636 4.46593 1.23044 4.78704C1.08344 5.27137 1.00195 5.78379 1.00195 6.31597C1.00195 9.25203 3.38198 11.6322 6.31795 11.6322C7.11379 11.6322 7.86829 11.4567 8.54595 11.1431C8.85197 10.9845 9.07984 11.2456 9.07984 11.2456L12.4113 14.58C12.7449 14.9138 13.202 15.0486 13.6355 14.9845C13.6355 14.9845 14.7581 14.8837 15.0081 13.6331C15.0812 13.1923 14.9476 12.7239 14.6075 12.3839L14.6075 12.3839Z" fill="rgb(20,118,255)" fill-rule="nonzero" />
</svg>
