<svg viewBox="0 0 14 13.9956" xmlns="http://www.w3.org/2000/svg" xmlns:xlink="http://www.w3.org/1999/xlink" width="14.000000" height="13.995605" fill="none" customFrame="#000000">
	<path id="深色默认" d="M8.5 2.99567C9.88071 2.99567 11 4.11495 11 5.49567L11 11.4957C11 12.8764 9.88071 13.9957 8.5 13.9957L2.5 13.9957C1.11929 13.9957 0 12.8764 0 11.4957L0 5.49567C0 4.11495 1.11929 2.99567 2.5 2.99567L8.5 2.99567ZM8.5 3.99567L2.5 3.99567C1.67157 3.99567 1 4.66724 1 5.49567L1 11.4957C1 12.3241 1.67157 12.9957 2.5 12.9957L8.5 12.9957C9.32843 12.9957 10 12.3241 10 11.4957L10 5.49567C10 4.66724 9.32843 3.99567 8.5 3.99567ZM11.5 0C12.8807 0 14 1.11929 14 2.5L14 7.5C14 7.77614 13.7761 8 13.5 8C13.2239 8 13 7.77614 13 7.5L13 2.5C13 1.67157 12.3284 1 11.5 1L6.5 1C6.22386 1 6 0.776142 6 0.5C6 0.223858 6.22386 0 6.5 0L11.5 0Z" fill="rgb(179,179,179)" fill-rule="nonzero" />
</svg>
