<svg viewBox="0 0 16 16" xmlns="http://www.w3.org/2000/svg" xmlns:xlink="http://www.w3.org/1999/xlink" width="16.000000" height="16.000000" fill="none">
	<rect id="svg 2" width="16.000000" height="16.000000" x="0.000000" y="0.000000" />
	<path id="矢量 332" d="M8.07619 14.7149C11.998 14.7149 15.1836 11.5292 15.1836 7.60744C15.1836 6.30018 14.8283 5.08176 14.2191 4.02834L2.63138 12.1765C3.95134 13.7376 5.89319 14.7149 8.07619 14.7149ZM8.07619 0.5C4.15441 0.5 0.96875 3.68566 0.96875 7.60744C0.96875 8.82586 1.27335 9.98082 1.8191 10.9835L13.3687 2.86069C12.0741 1.41382 10.183 0.500001 8.07619 0.500001L8.07619 0.5Z" fill="rgb(20,118,255)" fill-rule="nonzero" />
	<path id="矢量 333" d="M0.309002 12.0494C-0.0209862 12.2779 -0.0971373 12.7348 0.131316 13.0648C0.35977 13.3948 0.816677 13.4709 1.14667 13.2425L2.64431 12.189C2.32701 11.821 2.06048 11.4148 1.81933 10.9833L0.309003 12.0494L0.309002 12.0494ZM15.8692 1.99748C15.6408 1.66749 15.1839 1.59134 14.8539 1.81979L13.3689 2.86053C13.6989 3.2159 13.9781 3.60934 14.2193 4.04087L15.6788 3.01283C16.0215 2.77168 16.0977 2.32747 15.8692 1.99748L15.8692 1.99748Z" fill="rgb(20,118,255)" fill-rule="nonzero" />
</svg>