<svg viewBox="0 0 16 16" xmlns="http://www.w3.org/2000/svg" xmlns:xlink="http://www.w3.org/1999/xlink" width="16.000000" height="16.000000" fill="none">
	<rect id="svg 1" width="16.000000" height="16.000000" x="0.000000" y="0.000000" />
	<path id="矢量 330" d="M5.79772 1.4842C6.06567 1.4842 6.29497 1.57695 6.48563 1.76246C6.67628 1.94796 6.77161 2.17469 6.77161 2.44264L6.77161 6.30731C6.77161 6.57526 6.67628 6.80456 6.48563 6.99522C6.29497 7.18587 6.06567 7.2812 5.79772 7.2812L1.93305 7.2812C1.6651 7.2812 1.43837 7.18587 1.25287 6.99522C1.06736 6.80456 0.974609 6.57526 0.974609 6.30731L0.974609 2.44264C0.974609 2.17469 1.06736 1.94796 1.25287 1.76246C1.43837 1.57695 1.6651 1.4842 1.93305 1.4842L5.79772 1.4842L5.79772 1.4842ZM5.79772 9.21354C6.06567 9.21354 6.29497 9.30629 6.48563 9.49179C6.67628 9.6773 6.77161 9.90402 6.77161 10.172L6.77161 14.0521C6.77161 14.3201 6.67628 14.5468 6.48563 14.7323C6.29497 14.9178 6.06567 15.0105 5.79772 15.0105L1.93305 15.0105C1.6651 15.0105 1.43837 14.9178 1.25287 14.7323C1.06736 14.5468 0.974609 14.3201 0.974609 14.0521L0.974609 10.172C0.974609 9.90402 1.06736 9.6773 1.25287 9.49179C1.43837 9.30629 1.6651 9.21354 1.93305 9.21354L5.79772 9.21354ZM13.5425 9.21354C13.8105 9.21354 14.0372 9.30629 14.2227 9.49179C14.4082 9.6773 14.5009 9.90402 14.5009 10.172L14.5009 14.0521C14.5009 14.3201 14.4082 14.5468 14.2227 14.7323C14.0372 14.9178 13.8105 15.0105 13.5425 15.0105L9.67784 15.0105C9.40989 15.0105 9.18059 14.9178 8.98993 14.7323C8.79927 14.5468 8.70395 14.3201 8.70395 14.0521L8.70395 10.172C8.70395 9.90402 8.79927 9.6773 8.98993 9.49179C9.18059 9.30629 9.40989 9.21354 9.67784 9.21354L13.5425 9.21354ZM15.6913 3.18465C15.8974 3.39077 16.0004 3.63295 16.0004 3.91121C16.0004 4.18947 15.8974 4.4265 15.6913 4.62231L12.816 7.49762C12.6098 7.70374 12.3702 7.8068 12.0971 7.8068C11.824 7.8068 11.5844 7.70374 11.3783 7.49762L8.50299 4.62231C8.30717 4.4265 8.20927 4.18947 8.20927 3.91121C8.20927 3.63295 8.30717 3.39077 8.50299 3.18465L11.3783 0.30934C11.5844 0.11353 11.824 0.015625 12.0971 0.015625C12.3702 0.015625 12.6098 0.11353 12.816 0.30934L15.6913 3.18465Z" fill="rgb(20,118,255)" fill-rule="nonzero" />
</svg>
