<svg viewBox="0 0 16 16" xmlns="http://www.w3.org/2000/svg" xmlns:xlink="http://www.w3.org/1999/xlink" width="16.000000" height="16.000000" fill="none" customFrame="#000000">
	<defs>
		<clipPath id="clipPath_6">
			<rect width="16.000000" height="16.000000" x="0.000000" y="0.000000" fill="rgb(255,255,255)" />
		</clipPath>
	</defs>
	<rect id="成功" width="16.000000" height="16.000000" x="0.000000" y="0.000000" fill="rgb(255,255,255)" fill-opacity="0" />
	<g id="消息状态" customFrame="url(#clipPath_6)">
		<rect id="消息状态" width="16.000000" height="16.000000" x="0.000000" y="0.000000" />
		<path id="路径" d="M8 1C4.13438 1 1 4.13438 1 8C1 11.8656 4.13438 15 8 15C11.8656 15 15 11.8656 15 8C15 4.13438 11.8656 1 8 1Z" fill="rgb(92,179,0)" fill-opacity="0" fill-rule="evenodd" />
		<path id="路径" d="M1 8C1 4.13438 4.13438 1 8 1C11.8656 1 15 4.13438 15 8C15 11.8656 11.8656 15 8 15C4.13438 15 1 11.8656 1 8ZM2.14868 9.33816Q2 8.68603 2 8Q2 7.31397 2.14868 6.66184Q2.26467 6.15312 2.47114 5.66503Q2.68226 5.16592 2.97411 4.7196Q3.31178 4.20322 3.7575 3.7575Q4.20322 3.31177 4.71961 2.97411Q5.16592 2.68226 5.66503 2.47114Q6.15312 2.26467 6.66185 2.14868Q7.31398 2 8 2Q8.68604 2 9.33818 2.14869Q9.84689 2.26467 10.335 2.47114Q10.8341 2.68227 11.2804 2.97413Q11.7968 3.31179 12.2425 3.7575Q12.6882 4.20323 13.0259 4.71962Q13.3177 5.16593 13.5289 5.66503Q13.7353 6.1531 13.8513 6.66181Q14 7.31395 14 8Q14 8.68605 13.8513 9.33821Q13.7353 9.8469 13.5289 10.335Q13.3177 10.8341 13.0259 11.2804Q12.6882 11.7968 12.2425 12.2425Q11.7968 12.6882 11.2804 13.0259Q10.8341 13.3177 10.335 13.5289Q9.84689 13.7353 9.33818 13.8513Q8.68604 14 8 14Q7.31397 14 6.66183 13.8513Q6.15312 13.7353 5.66503 13.5289Q5.16593 13.3177 4.71961 13.0259Q4.20323 12.6882 3.7575 12.2425Q3.31179 11.7968 2.97414 11.2804Q2.68227 10.8341 2.47114 10.335Q2.26467 9.84688 2.14868 9.33816Z" fill="rgb(91,168,84)" fill-rule="evenodd" />
		<path id="Fill 1备份 2" d="M6.56964 9.79408L5.08797 8.31212C4.97068 8.19512 4.97068 8.00523 5.08797 7.88793C5.20527 7.77063 5.39487 7.77063 5.51216 7.88793L6.99382 9.36989C7.03222 9.40799 7.07692 9.41369 7.10002 9.41369C7.12312 9.41369 7.16782 9.40799 7.20592 9.36989L10.4878 6.08797C10.6051 5.97068 10.7947 5.97068 10.912 6.08797C11.0293 6.20527 11.0293 6.39487 10.912 6.51216L7.63041 9.79408C7.48881 9.93568 7.30042 10.0137 7.10002 10.0137C6.89963 10.0137 6.71123 9.93568 6.56964 9.79408Z" fill="rgb(91,168,84)" fill-rule="evenodd" />
		<path id="Fill 1备份 2" d="M5.08797 8.31212C4.97068 8.19512 4.97068 8.00523 5.08797 7.88793C5.20527 7.77063 5.39487 7.77063 5.51216 7.88793L6.99382 9.36989C7.03222 9.40799 7.07692 9.41369 7.10002 9.41369C7.12312 9.41369 7.16782 9.40799 7.20592 9.36989L10.4878 6.08797C10.6051 5.97068 10.7947 5.97068 10.912 6.08797C11.0293 6.20527 11.0293 6.39487 10.912 6.51216L7.63041 9.79408C7.48881 9.93568 7.30042 10.0137 7.10002 10.0137C6.89963 10.0137 6.71123 9.93568 6.56964 9.79408L5.08797 8.31212Z" fill-rule="evenodd" stroke="rgb(91,168,84)" stroke-width="0.300000012" />
	</g>
</svg>
