<svg viewBox="0 0 16 16" xmlns="http://www.w3.org/2000/svg" xmlns:xlink="http://www.w3.org/1999/xlink" width="16.000000" height="16.000000" fill="none">
	<rect id="svg 4" width="16.000000" height="16.000000" x="0.000000" y="0.000000" />
	<path id="合并" d="M11.5358 5.80827C11.5323 5.82388 11.5246 5.83712 11.5129 5.84801L11.5128 5.84801L8.15961 8.95741C8.11483 8.99903 8.06188 9.0198 8.00075 9.01974C7.93963 9.01978 7.88667 8.99901 7.84189 8.95741L4.48875 5.84801C4.477 5.83713 4.46934 5.82389 4.46576 5.80828C4.46219 5.79267 4.46333 5.77742 4.46918 5.76251C4.47503 5.7476 4.48457 5.73563 4.4978 5.72661C4.51104 5.71758 4.52566 5.71306 4.54168 5.71306L6.70994 5.71306L6.70562 2.16557C6.70544 2.10099 6.72819 2.04587 6.77386 2.0002C6.81954 1.95452 6.87941 1.93164 6.93919 1.93164L9.06276 1.93164C9.12738 1.93156 9.18249 1.95442 9.22809 2.0002Q9.26239 2.03443 9.27947 2.07578Q9.29654 2.11712 9.2964 2.16557L9.29173 5.71306L11.4599 5.71306C11.4759 5.71305 11.4906 5.71755 11.5038 5.72658C11.517 5.73561 11.5266 5.74759 11.5324 5.76251C11.5382 5.77741 11.5394 5.79266 11.5358 5.80827ZM12.7321 8.17526L14.8343 9.79938C14.9534 9.89231 15.013 10.086 14.9668 10.2298L14.1418 12.7951C14.0956 12.9389 13.9341 13.0566 13.7831 13.0566L2.19714 13.0566C2.04609 13.0566 1.8841 12.9391 1.83719 12.7955L0.998546 10.2294C0.951617 10.0858 1.01066 9.89231 1.12975 9.79938L3.23195 8.17525C3.35104 8.08233 3.57208 8.00631 3.72312 8.00631L4.96296 8.00631L2.94982 10.0248L4.97001 10.0248L5.95408 11.4862L10.0018 11.4862L11.0298 10.0251L13.0498 10.0251L11.0238 8.00632L12.2409 8.00632C12.392 8.00632 12.613 8.08235 12.7321 8.17526Z" fill="rgb(20,118,255)" fill-rule="evenodd" />
</svg>