<svg viewBox="0 0 16 16" xmlns="http://www.w3.org/2000/svg" xmlns:xlink="http://www.w3.org/1999/xlink" width="16.000000" height="16.000000" fill="none" customFrame="#000000">
	<defs>
		<clipPath id="clipPath_1">
			<rect width="16.000000" height="16.000000" x="0.000000" y="0.000000" fill="rgb(255,255,255)" />
		</clipPath>
	</defs>
	<rect id="提示" width="16.000000" height="16.000000" x="0.000000" y="0.000000" fill="rgb(255,255,255)" fill-opacity="0" />
	<g id="消息状态" customFrame="url(#clipPath_1)">
		<rect id="消息状态" width="16.000000" height="16.000000" x="0.000000" y="0.000000" />
		<path id="路径" d="M8 1C4.13438 1 1 4.13438 1 8C1 11.8656 4.13438 15 8 15C11.8656 15 15 11.8656 15 8C15 4.13438 11.8656 1 8 1Z" fill="rgb(20,118,255)" fill-opacity="0" fill-rule="evenodd" />
		<path id="路径" d="M1 8C1 4.13438 4.13438 1 8 1C11.8656 1 15 4.13438 15 8C15 11.8656 11.8656 15 8 15C4.13438 15 1 11.8656 1 8ZM2.14868 9.33816Q2 8.68603 2 8Q2 7.31397 2.14868 6.66184Q2.26467 6.15312 2.47114 5.66503Q2.68226 5.16592 2.97411 4.7196Q3.31178 4.20322 3.7575 3.7575Q4.20322 3.31177 4.71961 2.97411Q5.16592 2.68226 5.66503 2.47114Q6.15312 2.26467 6.66185 2.14868Q7.31398 2 8 2Q8.68604 2 9.33818 2.14869Q9.84689 2.26467 10.335 2.47114Q10.8341 2.68227 11.2804 2.97413Q11.7968 3.31179 12.2425 3.7575Q12.6882 4.20323 13.0259 4.71962Q13.3177 5.16593 13.5289 5.66503Q13.7353 6.1531 13.8513 6.66181Q14 7.31395 14 8Q14 8.68605 13.8513 9.33821Q13.7353 9.8469 13.5289 10.335Q13.3177 10.8341 13.0259 11.2804Q12.6882 11.7968 12.2425 12.2425Q11.7968 12.6882 11.2804 13.0259Q10.8341 13.3177 10.335 13.5289Q9.84689 13.7353 9.33818 13.8513Q8.68604 14 8 14Q7.31397 14 6.66183 13.8513Q6.15312 13.7353 5.66503 13.5289Q5.16593 13.3177 4.71961 13.0259Q4.20323 12.6882 3.7575 12.2425Q3.31179 11.7968 2.97414 11.2804Q2.68227 10.8341 2.47114 10.335Q2.26467 9.84688 2.14868 9.33816Z" fill="rgb(20,118,255)" fill-rule="evenodd" />
		<g id="编组">
			<path id="路径_00000080208483849487366210000017231728556077793688_" d="M7.92994 5.7103C7.45964 5.7103 7.06934 5.3297 7.06934 4.8497C7.06934 4.37939 7.45964 4 7.92994 4C8.40024 4 8.78934 4.38061 8.78934 4.86061C8.78934 5.3297 8.40024 5.7103 7.92994 5.7103Z" fill="rgb(20,118,255)" fill-rule="evenodd" />
			<path id="矢量 41" d="M8.13008 12L8.93008 12L8.13008 12Z" fill="rgb(20,118,255)" fill-rule="evenodd" />
			<path id="矢量 41" d="M7.55865 7L8.13008 7L8.13008 12M7.33008 12L8.13008 12L8.93008 12" fill-rule="evenodd" stroke="rgb(20,118,255)" stroke-linecap="round" stroke-linejoin="round" stroke-width="1" />
		</g>
	</g>
</svg>
