<svg viewBox="0 0 16 16" xmlns="http://www.w3.org/2000/svg" xmlns:xlink="http://www.w3.org/1999/xlink" width="16.000000" height="16.000000" fill="none" customFrame="#000000">
	<defs>
		<clipPath id="clipPath_7">
			<rect width="16.000000" height="16.000000" x="0.000000" y="0.000000" fill="rgb(255,255,255)" />
		</clipPath>
	</defs>
	<rect id="错误" width="16.000000" height="16.000000" x="0.000000" y="0.000000" fill="rgb(255,255,255)" fill-opacity="0" />
	<g id="消息状态" customFrame="url(#clipPath_7)">
		<rect id="消息状态" width="16.000000" height="16.000000" x="0.000000" y="0.000000" />
		<path id="路径" d="M8 1C4.13438 1 1 4.13438 1 8C1 11.8656 4.13438 15 8 15C11.8656 15 15 11.8656 15 8C15 4.13438 11.8656 1 8 1Z" fill="rgb(242,48,48)" fill-opacity="0" fill-rule="evenodd" />
		<path id="路径" d="M1 8C1 4.13438 4.13438 1 8 1C11.8656 1 15 4.13438 15 8C15 11.8656 11.8656 15 8 15C4.13438 15 1 11.8656 1 8ZM2.14868 9.33816Q2 8.68603 2 8Q2 7.31397 2.14868 6.66184Q2.26467 6.15312 2.47114 5.66503Q2.68226 5.16592 2.97411 4.7196Q3.31178 4.20322 3.7575 3.7575Q4.20322 3.31177 4.71961 2.97411Q5.16592 2.68226 5.66503 2.47114Q6.15312 2.26467 6.66185 2.14868Q7.31398 2 8 2Q8.68604 2 9.33818 2.14869Q9.84689 2.26467 10.335 2.47114Q10.8341 2.68227 11.2804 2.97413Q11.7968 3.31179 12.2425 3.7575Q12.6882 4.20323 13.0259 4.71962Q13.3177 5.16593 13.5289 5.66503Q13.7353 6.1531 13.8513 6.66181Q14 7.31395 14 8Q14 8.68605 13.8513 9.33821Q13.7353 9.8469 13.5289 10.335Q13.3177 10.8341 13.0259 11.2804Q12.6882 11.7968 12.2425 12.2425Q11.7968 12.6882 11.2804 13.0259Q10.8341 13.3177 10.335 13.5289Q9.84689 13.7353 9.33818 13.8513Q8.68604 14 8 14Q7.31397 14 6.66183 13.8513Q6.15312 13.7353 5.66503 13.5289Q5.16593 13.3177 4.71961 13.0259Q4.20323 12.6882 3.7575 12.2425Q3.31179 11.7968 2.97414 11.2804Q2.68227 10.8341 2.47114 10.335Q2.26467 9.84688 2.14868 9.33816Z" fill="rgb(217,72,56)" fill-rule="evenodd" />
		<path id="形状结合备份" d="M10.3598 10.89C10.4329 10.9632 10.5289 10.9999 10.6249 10.9999C10.7209 10.9999 10.8169 10.9632 10.89 10.89C11.0367 10.7434 11.0367 10.5064 10.89 10.3598L8.53023 8L10.89 5.6402C11.0367 5.49358 11.0367 5.25659 10.89 5.10997C10.7434 4.96335 10.5064 4.96335 10.3598 5.10997L8 7.46977L5.6402 5.10997C5.49358 4.96335 5.25659 4.96335 5.10997 5.10997C4.96335 5.25659 4.96335 5.49358 5.10997 5.6402L7.46977 8L5.10997 10.3598C4.96335 10.5064 4.96335 10.7434 5.10997 10.89C5.18309 10.9632 5.27909 10.9999 5.37508 10.9999C5.47108 10.9999 5.56708 10.9632 5.6402 10.89L8 8.53023L10.3598 10.89Z" fill="rgb(217,72,56)" fill-rule="evenodd" />
		<path id="形状结合备份" d="M10.3598 10.89C10.4329 10.9632 10.5289 10.9999 10.6249 10.9999C10.7209 10.9999 10.8169 10.9632 10.89 10.89C11.0367 10.7434 11.0367 10.5064 10.89 10.3598L8.53023 8L10.89 5.6402C11.0367 5.49358 11.0367 5.25659 10.89 5.10997C10.7434 4.96335 10.5064 4.96335 10.3598 5.10997L8 7.46977L5.6402 5.10997C5.49358 4.96335 5.25659 4.96335 5.10997 5.10997C4.96335 5.25659 4.96335 5.49358 5.10997 5.6402L7.46977 8L5.10997 10.3598C4.96335 10.5064 4.96335 10.7434 5.10997 10.89C5.18309 10.9632 5.27909 10.9999 5.37508 10.9999C5.47108 10.9999 5.56708 10.9632 5.6402 10.89L8 8.53023L10.3598 10.89Z" fill-rule="evenodd" stroke="rgb(217,72,56)" stroke-width="0.300000012" />
	</g>
</svg>
