<svg width="350px" height="350px" viewBox="0 0 30 30" fill="none" xmlns="http://www.w3.org/2000/svg" xmlns:xlink="http://www.w3.org/1999/xlink">
	<defs>
		<clipPath id="clip98_51383">
			<rect id="logo" width="30.000000" height="30.000000" fill="white" fill-opacity="0"/>
		</clipPath>
		<radialGradient gradientTransform="translate(8.53318 20.5507) rotate(128.932) scale(8.47037 7.62333)" cx="0.000000" cy="0.000000" r="1.000000" id="paint_radial_98_51388_0" gradientUnits="userSpaceOnUse">
			<stop stop-color="#5ADDF8"/>
			<stop stop-color="#AEBFFF"/>
			<stop offset="0.329153" stop-color="#1476FF"/>
			<stop offset="0.667785" stop-color="#655AF8"/>
			<stop offset="0.868255" stop-color="#948CFF"/>
			<stop offset="1.000000" stop-color="#D25AF8"/>
			<stop offset="1.000000" stop-color="#5A8BF8"/>
		</radialGradient>
		<linearGradient x1="7.999878" y1="27.876589" x2="7.815674" y2="22.534477" id="paint_linear_98_51390_0" gradientUnits="userSpaceOnUse">
			<stop stop-color="#000000" stop-opacity="0.000000"/>
			<stop offset="1.000000" stop-color="#000000"/>
		</linearGradient>
		<radialGradient gradientTransform="translate(6.52626 5.66508) rotate(38.3654) scale(28.663 40.3407)" cx="0.000000" cy="0.000000" r="1.000000" id="paint_radial_98_51391_0" gradientUnits="userSpaceOnUse">
			<stop stop-color="#5ADDF8"/>
			<stop stop-color="#AEBFFF"/>
			<stop offset="0.329153" stop-color="#1476FF"/>
			<stop offset="0.667785" stop-color="#655AF8"/>
			<stop offset="0.868255" stop-color="#948CFF"/>
			<stop offset="1.000000" stop-color="#D25AF8"/>
			<stop offset="1.000000" stop-color="#5A8BF8"/>
		</radialGradient>
	</defs>
	<g clip-path="url(#clip98_51383)">
		<path id="矢量 1" d="M9.81 26.4L9.84 19.77L3.21 19.79L8.54 26.85C8.96 27.4 9.81 27.1 9.81 26.4Z" fill="url(#paint_radial_98_51388_0)" fill-opacity="1.000000" fill-rule="evenodd"/>
		<g opacity="0.100000" style="mix-blend-mode:normal">
			<path id="矢量 1" d="M9.81 26.4L9.84 19.77L3.21 19.79L8.54 26.85C8.96 27.4 9.81 27.1 9.81 26.4Z" fill="url(#paint_linear_98_51390_0)" fill-opacity="0" fill-rule="evenodd"/>
		</g>
		<rect id="矩形 5" x="1.000000" y="3.560791" rx="9.947369" width="28.000000" height="19.894737" fill="url(#paint_radial_98_51391_0)" fill-opacity="1.000000"/>
		<rect id="矩形 5" rx="9.763158" width="27.631578" height="19.526316" transform="matrix(-1 0 0 1 28.8159 3.745)" fill="#000000" fill-opacity="0"/>
		<rect id="矩形 5" rx="9.763158" width="27.631578" height="19.526316" transform="matrix(-1 0 0 1 28.8159 3.745)" fill="#000000" fill-opacity="0"/>
		<rect id="矩形 5" rx="9.763158" width="27.631578" height="19.526316" transform="matrix(-1 0 0 1 28.8159 3.745)" stroke="#000000" stroke-opacity="0" stroke-width="1.000000"/>
		<path id="path" d="M13.3 18.31C12.87 18.68 12.38 18.9 11.84 18.99C11.29 19.07 10.78 19.04 10.31 18.9C9.84 18.76 9.11 18.14 9.11 18.14C9.11 18.14 7.27 16.72 7.27 13.36C7.27 10 8.92 8.53 8.92 8.53C8.92 8.53 9.37 8.09 10.02 7.98C10.68 7.86 11.1 7.97 11.55 8.1C15.32 9.17 19.56 9.2 23.31 8.1C23.77 7.97 24.17 7.95 24.53 8.04C24.89 8.13 25.2 8.3 25.47 8.56C26.66 9.75 27.11 11.68 27.15 13.36C27.2 15.01 26.77 16.91 25.66 18.12C25.33 18.48 24.93 18.74 24.49 18.89C24.05 19.04 23.59 19.07 23.1 18.99C22.61 18.9 22.17 18.68 21.8 18.31C21.63 18.15 21.4 17.95 21.1 17.7C20.8 17.46 20.46 17.22 20.08 16.98C19.69 16.75 19.28 16.54 18.82 16.38C18.37 16.21 17.91 16.13 17.43 16.13C16.97 16.13 16.53 16.21 16.1 16.39C15.68 16.56 15.29 16.76 14.93 17C14.58 17.23 14.26 17.47 13.99 17.72C13.71 17.96 13.48 18.16 13.3 18.31Z" fill="#FFFFFF" fill-opacity="1.000000" fill-rule="nonzero"/>
		<rect id="矩形 841" rx="0.736842" width="1.473684" height="4.421051" transform="matrix(-0.999983 0.00577157 0.00577157 0.999983 24.6199 10.5739)" fill="#1476FF" fill-opacity="1.000000"/>
		<path id="合并" d="M12.4 10.56C12.7 10.54 12.99 10.71 13.12 10.99L14.53 13.91C14.71 14.29 14.55 14.73 14.17 14.91C13.79 15.08 13.33 14.91 13.15 14.53L12.4 12.98L11.66 14.54C11.48 14.91 11.02 15.08 10.64 14.91C10.26 14.73 10.1 14.29 10.28 13.91L11.68 10.99C11.82 10.71 12.11 10.55 12.4 10.56Z" fill="#1476FF" fill-opacity="1.000000" fill-rule="evenodd"/>
	</g>
</svg>
