<svg viewBox="0 0 20 20" xmlns="http://www.w3.org/2000/svg" xmlns:xlink="http://www.w3.org/1999/xlink" width="20.000000" height="20.000000" fill="none" customFrame="#000000">
	<defs>
		<linearGradient id="paint_linear_7" x1="7.73359346" x2="13.9669266" y1="5.93333292" y2="12.4666691" gradientUnits="userSpaceOnUse">
			<stop stop-color="rgb(178,207,255)" offset="0" stop-opacity="1" />
			<stop stop-color="rgb(247,250,255)" offset="1" stop-opacity="1" />
		</linearGradient>
		<linearGradient id="paint_linear_8" x1="15.8002605" x2="13.8669281" y1="12.1333342" y2="4.46666622" gradientUnits="userSpaceOnUse">
			<stop stop-color="rgb(178,207,255)" offset="0" stop-opacity="1" />
			<stop stop-color="rgb(247,250,255)" offset="1" stop-opacity="1" />
		</linearGradient>
	</defs>
	<g id="编组 33">
		<rect id="矩形备份 5" width="19.999998" height="20.000004" x="0.000000" y="0.000000" rx="3.636364" fill="rgb(20,118,255)" />
		<rect id="矩形备份 5" width="19.583332" height="19.583338" x="0.208333" y="0.208333" rx="3.636364" stroke="rgb(210,45,38)" stroke-opacity="0" stroke-width="0.416666687" />
		<g id="组合 19">
			<g style="mix-blend-mode:normal">
				<path id="矢量 327" d="M7.32617 14.3037L7.32617 9.5624L12.023 15.2707C12.4029 15.7325 12.9695 16 13.5674 16L14.0352 16C15.1397 16 16.0352 15.1046 16.0352 14L16.0352 5.70605C16.0352 4.76383 15.2713 4 14.3291 4C13.3869 4 12.623 4.76383 12.623 5.70605L12.623 9.18987C12.623 9.66238 12.0281 9.87124 11.7328 9.50242L7.92665 4.7498C7.54709 4.27585 6.97276 4 6.36556 4L5.93359 4C4.82902 4 3.93359 4.89543 3.93359 6L3.93359 14.3037C3.93359 15.2405 4.69305 16 5.62988 16C6.56672 16 7.32617 15.2405 7.32617 14.3037Z" fill="rgb(255,255,255)" fill-rule="evenodd" />
			</g>
			<g style="mix-blend-mode:normal">
				<path id="矢量 328" d="M16.0352 14L16.0352 5.70605C16.0352 4.76383 15.2713 4 14.3291 4C13.3869 4 12.623 4.76383 12.623 5.70605L12.623 9.18987C12.623 9.66238 12.0281 9.87124 11.7328 9.50242L8.03839 4.88933C7.8021 4.59428 7.32617 4.76136 7.32617 5.13937L7.32617 9.5624L12.023 15.2707C12.4029 15.7325 12.9695 16 13.5674 16L14.0352 16C15.1397 16 16.0352 15.1046 16.0352 14Z" fill="url(#paint_linear_7)" fill-rule="evenodd" />
			</g>
			<g style="mix-blend-mode:normal">
				<path id="矢量 329" d="M16.0352 13.715L16.0352 5.70605C16.0352 4.76383 15.2713 4 14.3291 4C13.3869 4 12.623 4.76383 12.623 5.70605L12.623 9.86336C12.623 9.92074 12.6379 9.97715 12.666 10.0271L14.9126 14.0098C15.2157 14.5473 16.0352 14.3321 16.0352 13.715Z" fill="url(#paint_linear_8)" fill-rule="evenodd" />
			</g>
		</g>
	</g>
</svg>