<svg viewBox="0 0 199.449 32.0002" xmlns="http://www.w3.org/2000/svg" xmlns:xlink="http://www.w3.org/1999/xlink" width="199.449219" height="32.000244" fill="none" customFrame="#000000">
	<defs>
		<radialGradient id="paint_radial_0" cx="0" cy="0" r="1" gradientUnits="userSpaceOnUse" gradientTransform="matrix(-7.22437,8.94305,-8.04874,-6.50193,10.2243,23.0598)">
			<stop stop-color="rgb(90,221,248)" offset="0" stop-opacity="1" />
			<stop stop-color="rgb(174,191,255)" offset="0" stop-opacity="1" />
			<stop stop-color="rgb(20,118,255)" offset="0.329153001" stop-opacity="1" />
			<stop stop-color="rgb(101,90,248)" offset="0.667784989" stop-opacity="1" />
			<stop stop-color="rgb(148,140,255)" offset="0.868255019" stop-opacity="1" />
			<stop stop-color="rgb(210,90,248)" offset="1" stop-opacity="1" />
			<stop stop-color="rgb(90,139,248)" offset="1" stop-opacity="1" />
		</radialGradient>
		<linearGradient id="paint_linear_2" x1="9.50040245" x2="9.2504015" y1="33.0030327" y2="25.7523899" gradientUnits="userSpaceOnUse">
			<stop stop-color="rgb(0,0,0)" offset="0" stop-opacity="0" />
			<stop stop-color="rgb(0,0,0)" offset="1" stop-opacity="1" />
		</linearGradient>
		<radialGradient id="paint_radial_1" cx="0" cy="0" r="1" gradientUnits="userSpaceOnUse" gradientTransform="matrix(30.5027,24.1463,-33.9838,42.9299,7.50058,2.85606)">
			<stop stop-color="rgb(90,221,248)" offset="0" stop-opacity="1" />
			<stop stop-color="rgb(174,191,255)" offset="0" stop-opacity="1" />
			<stop stop-color="rgb(20,118,255)" offset="0.329153001" stop-opacity="1" />
			<stop stop-color="rgb(101,90,248)" offset="0.667784989" stop-opacity="1" />
			<stop stop-color="rgb(148,140,255)" offset="0.868255019" stop-opacity="1" />
			<stop stop-color="rgb(210,90,248)" offset="1" stop-opacity="1" />
			<stop stop-color="rgb(90,139,248)" offset="1" stop-opacity="1" />
		</radialGradient>
	</defs>
	<g id="组合 14">
		<g id="g">
			<path id="矢量 1" d="M11.9658 31.0077L12.0008 22.002L3 22.037L10.2406 31.6178C10.8057 32.3579 11.9658 31.9528 11.9658 31.0077Z" fill="url(#paint_radial_0)" fill-rule="evenodd" />
			<g id="g" opacity="0.100000001" style="mix-blend-mode:normal">
				<path id="矢量 1" d="M11.9658 31.0077L12.0008 22.002L3 22.037L10.2406 31.6178C10.8057 32.3579 11.9658 31.9528 11.9658 31.0077Z" fill="url(#paint_linear_2)" fill-rule="evenodd" />
			</g>
			<rect id="矩形 5" width="38.003284" height="27.002361" x="0.000000" y="0.000000" rx="13.501168" fill="url(#paint_radial_1)" />
			<rect id="矩形 5" width="37.503239" height="26.502319" x="0.000000" y="0.000000" rx="13.251145" fill="rgb(0,0,0)" fill-opacity="0" transform="matrix(-1,0,0,1,37.7539,0.25)" />
			<rect id="矩形 5" width="37.503239" height="26.502319" x="0.000000" y="0.000000" rx="13.251145" fill="rgb(0,0,0)" fill-opacity="0" transform="matrix(-1,0,0,1,37.7539,0.25)" />
			<rect id="矩形 5" width="37.503239" height="26.502319" x="0.000000" y="0.000000" rx="13.251145" stroke="rgb(0,0,0)" stroke-opacity="0" stroke-width="0.500043333" transform="matrix(-1,0,0,1,37.7539,0.25)" />
			<path id="path" d="M16.6974 20.0316C16.1124 20.5266 15.4523 20.8317 14.7173 20.9467C13.9772 21.0617 13.2871 21.0217 12.6421 20.8267C12.002 20.6317 11.0219 19.7916 11.0219 19.7916C11.0219 19.7916 8.51172 17.8664 8.51172 13.306C8.51172 8.75062 10.7519 6.75044 10.7519 6.75044C10.7519 6.75044 11.362 6.15539 12.252 6.00037C13.1471 5.84036 13.7172 5.99037 14.3322 6.16539C19.4477 7.61552 25.1932 7.66552 30.2936 6.16539C30.9087 5.99037 31.4587 5.96537 31.9487 6.08538C32.4388 6.21039 32.8588 6.44541 33.2139 6.79544C34.829 8.40559 35.4391 11.0308 35.5041 13.306C35.5641 15.5462 34.989 18.1214 33.4739 19.7716C33.0238 20.2616 32.4938 20.6117 31.8937 20.8167C31.2937 21.0217 30.6636 21.0617 29.9986 20.9467C29.3335 20.8317 28.7435 20.5266 28.2334 20.0316C28.0084 19.8116 27.6984 19.5366 27.2883 19.2015C26.8833 18.8665 26.4183 18.5415 25.8982 18.2214C25.3782 17.9014 24.8131 17.6264 24.1981 17.4014C23.583 17.1764 22.958 17.0663 22.3129 17.0663C21.6829 17.0663 21.0828 17.1814 20.5028 17.4164C19.9277 17.6464 19.3977 17.9214 18.9126 18.2414C18.4326 18.5615 18.0025 18.8915 17.6325 19.2265C17.2575 19.5566 16.9474 19.8266 16.6974 20.0316Z" fill="rgb(255,255,255)" fill-rule="nonzero" />
			<rect id="矩形 841" width="2.000173" height="6.000524" x="0.000000" y="0.000000" rx="1.000086" fill="rgb(20,118,255)" transform="matrix(-0.999983,0.00577158,0.00577157,0.999983,32.0586,9.51855)" />
			<path id="合并" d="M15.4815 9.50071C15.8865 9.48571 16.2766 9.71072 16.4616 10.0958L18.3667 14.0561C18.6118 14.5662 18.3967 15.1712 17.8767 15.4062C17.3617 15.6412 16.7416 15.4162 16.4966 14.9012L15.4815 12.796L14.4714 14.9062C14.2264 15.4162 13.6063 15.6412 13.0913 15.4062C12.5712 15.1712 12.3512 14.5662 12.6012 14.0561L14.5014 10.0958C14.6864 9.71072 15.0815 9.4907 15.4815 9.50071Z" fill="rgb(20,118,255)" fill-rule="evenodd" />
		</g>
		<g id="字体">
			<path id="矢量_12" d="M53.0935 5C50.8437 5 49.086 5.75456 47.8203 7.31175C46.5945 8.78176 46 10.6816 46 13.0355C46 15.3893 46.5916 17.2681 47.8203 18.7382C49.049 20.2082 50.8466 21.0289 53.0935 21.0289C55.3404 21.0289 57.0808 20.2743 58.3664 18.7622C59.5923 17.3163 60.2067 15.4134 60.2067 13.0385C60.2067 10.6636 59.5923 8.73965 58.3664 7.29369C57.078 5.75754 55.3205 5 53.0935 5ZM187.645 7.58229L199.449 7.58229L199.449 5L187.645 5L187.645 7.58229ZM96.1278 7.79573L107.931 7.79573L107.931 5.21344L96.1278 5.21344L96.1278 7.79573ZM170.785 5.31865L160.256 5.30362L160.256 20.7222L162.659 20.7222L162.659 7.45904L170.785 7.45904L170.785 5.31865ZM185.558 5.30362L182.634 5.30362L172.517 20.7252L175.441 20.7252L185.558 5.30362ZM148.148 5.30362L153.825 14.0576L153.825 18.0948L148.23 9.45213L148.148 9.45213L148.148 20.7252L145.756 20.7252L145.756 5.30362L148.148 5.30362ZM155.529 20.7252L155.446 20.599L155.446 8.12641L155.446 5.30362L157.858 5.30362L157.858 20.7252L155.529 20.7252ZM56.5888 17.2681C55.7726 18.2842 54.6066 18.8013 53.0935 18.8013C51.5804 18.8013 50.3942 18.2602 49.5779 17.202C48.7616 16.1438 48.3919 14.782 48.3919 13.0325C48.3919 11.2829 48.7816 9.879 49.5779 8.84187C50.417 7.76266 51.5804 7.22156 53.0935 7.22156C54.6066 7.22156 55.7726 7.71758 56.5888 8.7547C57.4051 9.79183 57.7949 11.2167 57.7949 13.0325C57.7949 14.8482 57.3852 16.2521 56.5888 17.2681ZM100.778 20.3585L100.778 9.36795L103.173 9.36795L103.173 20.3585L100.778 20.3585ZM192.295 20.145L192.295 9.36795L194.69 9.36795L194.69 20.145L192.295 20.145ZM128.879 18.1249L130.087 15.1368L128.122 9.55734L125.588 9.55734L128.879 18.1249ZM130.924 17.5056L130.887 17.4004L129.755 20.4006L129.777 20.4637L129.16 21.9668L128.901 22.6552L128.881 22.6492L127.917 25L130.412 25L136.134 9.55734L133.6 9.55734L131.595 15.5095L131.6 15.5156L131.541 15.6719L130.924 17.5056ZM83.9832 11.5925C83.548 10.9432 82.8796 10.5163 82.2681 10.2427C81.6566 9.96919 80.8517 9.8309 79.8591 9.8309L79.8591 9.85495C78.964 9.87299 78.2314 10.0093 77.6606 10.2638C77.0462 10.5383 76.522 10.9993 76.0877 11.6466C75.4486 12.5966 75.1284 13.7049 75.1264 14.9714C75.1264 16.9294 75.733 18.4055 76.9467 19.3995C77.3693 19.74 77.8358 19.9885 78.346 20.145C78.8446 20.2954 79.4885 20.3705 80.2772 20.3705L83.9149 20.3705L83.9149 18.1249L80.5787 18.1249C79.7482 18.1249 78.5565 17.9806 78.1867 17.692C77.817 17.4034 77.4046 16.8413 77.2965 16.207L79.9814 16.207C79.9814 16.207 82.3364 16.1649 82.5355 16.1679C83.7556 16.1829 84.7141 15.9575 84.6089 13.8201C84.5719 12.9934 84.296 12.0585 83.9832 11.5925ZM110.215 20.4517L112.544 20.4517L112.544 9.8309L110.215 9.8309L110.215 20.4517ZM89.1596 13.306L89.1937 13.306L89.1937 20.3735L86.7136 20.3735L86.7136 9.85495L89.1596 9.85495L89.1596 13.306ZM92.1574 12.1006L90.6755 12.1006L90.6755 9.85495L91.9867 9.85495C92.7774 9.85495 93.3804 9.91607 93.7956 10.0383C94.2214 10.1662 94.5997 10.3856 94.9304 10.6967C95.6244 11.3741 95.9723 12.4393 95.9743 13.8922L95.9743 20.3735L93.5681 20.3735L93.5681 13.5706C93.5681 13.0505 93.46 12.6777 93.241 12.4463C93.022 12.2148 92.6608 12.1006 92.1574 12.1006ZM114.911 9.85495L117.363 9.85495L117.363 13.297L117.391 13.297L117.391 20.3735L114.911 20.3735L114.911 9.85495ZM118.992 9.85495L118.992 12.1006L120.355 12.1006C120.858 12.1006 121.219 12.2148 121.438 12.4463C121.657 12.6777 121.765 13.0505 121.765 13.5706L121.765 20.3735L124.171 20.3735L124.171 13.8922C124.171 12.4372 123.824 11.3721 123.131 10.6967C122.8 10.3856 122.421 10.1662 121.996 10.0383C121.58 9.91408 120.977 9.85294 120.187 9.85495L118.992 9.85495ZM77.2965 13.9403C77.3648 13.297 77.4842 12.81 77.9478 12.4523C78.474 12.0464 79.4723 12.0735 80.2146 12.0945L80.866 12.0945C81.3921 12.1306 81.8898 12.2268 82.1174 12.4733C82.5213 12.9092 82.6009 13.2339 82.6692 13.9524L77.2965 13.9403ZM164.263 20.7252L164.263 18.5668L171.115 18.5668L171.115 20.7252L164.263 20.7252Z" fill="rgb(25,25,25)" fill-rule="evenodd" />
			<path id="矢量_12" d="M175.91 5L178.388 8.92605L176.883 10.9462L172.987 5L175.91 5ZM110.358 7.17947L112.687 7.17947L112.687 5.00301L110.358 5.00301L110.358 7.17947ZM68.0703 9.5393L62.8711 9.5393L62.8711 11.6767L65.2659 11.7128L65.2659 11.6977L67.8882 11.6977C68.932 11.6977 69.7085 11.8931 70.1977 12.302C70.6869 12.7108 70.9543 13.3391 70.9543 14.268C70.9543 15.1969 70.7068 15.8673 70.2176 16.2761C69.7284 16.685 68.9491 16.8804 67.8882 16.8804L65.3171 16.8804L62.8711 16.9495L62.8711 24.9609L65.2631 24.9609L65.2631 19.0418L68.0304 19.0418C71.5885 19.0418 73.3661 17.4425 73.3661 14.268C73.3661 11.0935 71.5857 9.5393 68.0703 9.5393ZM164.406 11.4362L164.406 13.5946L170.418 13.5946L170.418 11.4362L164.406 11.4362ZM183.103 20.4216L180.216 15.8462L181.633 13.7569L186.027 20.4216L183.103 20.4216Z" fill="rgb(20,118,255)" fill-rule="evenodd" />
		</g>
	</g>
</svg>
