<svg viewBox="0 0 200 32" xmlns="http://www.w3.org/2000/svg" xmlns:xlink="http://www.w3.org/1999/xlink" width="200.000000" height="32.000000" fill="none" customFrame="#000000">
	<defs>
		<radialGradient id="paint_radial_2" cx="0" cy="0" r="1" gradientUnits="userSpaceOnUse" gradientTransform="matrix(-7.22437,8.94305,-8.04874,-6.50193,10.2243,23.0598)">
			<stop stop-color="rgb(90,221,248)" offset="0" stop-opacity="1" />
			<stop stop-color="rgb(174,191,255)" offset="0" stop-opacity="1" />
			<stop stop-color="rgb(20,118,255)" offset="0.329153001" stop-opacity="1" />
			<stop stop-color="rgb(101,90,248)" offset="0.667784989" stop-opacity="1" />
			<stop stop-color="rgb(148,140,255)" offset="0.868255019" stop-opacity="1" />
			<stop stop-color="rgb(210,90,248)" offset="1" stop-opacity="1" />
			<stop stop-color="rgb(90,139,248)" offset="1" stop-opacity="1" />
		</radialGradient>
		<linearGradient id="paint_linear_9" x1="9.50040245" x2="9.2504015" y1="33.0030327" y2="25.7523899" gradientUnits="userSpaceOnUse">
			<stop stop-color="rgb(0,0,0)" offset="0" stop-opacity="0" />
			<stop stop-color="rgb(0,0,0)" offset="1" stop-opacity="1" />
		</linearGradient>
		<radialGradient id="paint_radial_3" cx="0" cy="0" r="1" gradientUnits="userSpaceOnUse" gradientTransform="matrix(30.5027,24.1463,-33.9838,42.9299,7.50058,2.85606)">
			<stop stop-color="rgb(90,221,248)" offset="0" stop-opacity="1" />
			<stop stop-color="rgb(174,191,255)" offset="0" stop-opacity="1" />
			<stop stop-color="rgb(20,118,255)" offset="0.329153001" stop-opacity="1" />
			<stop stop-color="rgb(101,90,248)" offset="0.667784989" stop-opacity="1" />
			<stop stop-color="rgb(148,140,255)" offset="0.868255019" stop-opacity="1" />
			<stop stop-color="rgb(210,90,248)" offset="1" stop-opacity="1" />
			<stop stop-color="rgb(90,139,248)" offset="1" stop-opacity="1" />
		</radialGradient>
	</defs>
	<g id="组合 16">
		<g id="g">
			<path id="矢量 1" d="M11.9658 31.0077L12.0008 22.002L3 22.037L10.2406 31.6178C10.8057 32.3579 11.9658 31.9528 11.9658 31.0077Z" fill="url(#paint_radial_2)" fill-rule="evenodd" />
			<g id="g" opacity="0.100000001" style="mix-blend-mode:normal">
				<path id="矢量 1" d="M11.9658 31.0077L12.0008 22.002L3 22.037L10.2406 31.6178C10.8057 32.3579 11.9658 31.9528 11.9658 31.0077Z" fill="url(#paint_linear_9)" fill-rule="evenodd" />
			</g>
			<rect id="矩形 5" width="38.003284" height="27.002361" x="0.000000" y="0.000000" rx="13.501168" fill="url(#paint_radial_3)" />
			<rect id="矩形 5" width="37.503239" height="26.502319" x="0.000000" y="0.000000" rx="13.251145" fill="rgb(0,0,0)" fill-opacity="0" transform="matrix(-1,0,0,1,37.7539,0.25)" />
			<rect id="矩形 5" width="37.503239" height="26.502319" x="0.000000" y="0.000000" rx="13.251145" fill="rgb(0,0,0)" fill-opacity="0" transform="matrix(-1,0,0,1,37.7539,0.25)" />
			<rect id="矩形 5" width="37.503239" height="26.502319" x="0.000000" y="0.000000" rx="13.251145" stroke="rgb(0,0,0)" stroke-opacity="0" stroke-width="0.500043333" transform="matrix(-1,0,0,1,37.7539,0.25)" />
			<path id="path" d="M16.6974 20.0318C16.1124 20.5269 15.4523 20.8319 14.7173 20.9469C13.9772 21.0619 13.2871 21.0219 12.6421 20.8269C12.002 20.6319 11.0219 19.7918 11.0219 19.7918C11.0219 19.7918 8.51172 17.8667 8.51172 13.3063C8.51172 8.75086 10.7519 6.75068 10.7519 6.75068C10.7519 6.75068 11.362 6.15563 12.252 6.00062C13.1471 5.8406 13.7172 5.99062 14.3322 6.16563C19.4477 7.61576 25.1932 7.66577 30.2936 6.16563C30.9087 5.99062 31.4587 5.96562 31.9487 6.08563C32.4388 6.21064 32.8588 6.44566 33.2139 6.79569C34.829 8.40583 35.4391 11.0311 35.5041 13.3063C35.5641 15.5465 34.989 18.1217 33.4739 19.7718C33.0238 20.2619 32.4938 20.6119 31.8937 20.8169C31.2937 21.0219 30.6636 21.0619 29.9986 20.9469C29.3335 20.8319 28.7435 20.5269 28.2334 20.0318C28.0084 19.8118 27.6984 19.5368 27.2883 19.2018C26.8833 18.8667 26.4183 18.5417 25.8982 18.2217C25.3782 17.9017 24.8131 17.6266 24.1981 17.4016C23.583 17.1766 22.958 17.0666 22.3129 17.0666C21.6829 17.0666 21.0828 17.1816 20.5028 17.4166C19.9277 17.6466 19.3977 17.9217 18.9126 18.2417C18.4326 18.5617 18.0025 18.8917 17.6325 19.2268C17.2575 19.5568 16.9474 19.8268 16.6974 20.0318Z" fill="rgb(255,255,255)" fill-rule="nonzero" />
			<rect id="矩形 841" width="2.000172" height="6.000523" x="0.000000" y="0.000000" rx="1.000086" fill="rgb(20,118,255)" transform="matrix(-0.999983,0.00577158,0.00577157,0.999983,32.0586,9.51855)" />
			<path id="合并" d="M15.4815 9.50071C15.8865 9.48571 16.2766 9.71072 16.4616 10.0958L18.3667 14.0561C18.6118 14.5662 18.3967 15.1712 17.8767 15.4062C17.3617 15.6412 16.7416 15.4162 16.4966 14.9012L15.4815 12.796L14.4714 14.9062C14.2264 15.4162 13.6063 15.6412 13.0913 15.4062C12.5712 15.1712 12.3512 14.5662 12.6012 14.0561L14.5014 10.0958C14.6864 9.71072 15.0815 9.4907 15.4815 9.50071Z" fill="rgb(20,118,255)" fill-rule="evenodd" />
		</g>
		<g id="字体">
			<path id="矢量_12" d="M53.119 5C50.8611 5 49.0971 5.75456 47.8269 7.31175C46.5966 8.78176 46 10.6816 46 13.0355C46 15.3893 46.5938 17.2681 47.8269 18.7382C49.06 20.2082 50.864 21.0289 53.119 21.0289C55.3739 21.0289 57.1207 20.2743 58.4109 18.7622C59.6411 17.3163 60.2578 15.4134 60.2578 13.0385C60.2578 10.6636 59.6411 8.73965 58.4109 7.29369C57.1178 5.75754 55.354 5 53.119 5ZM188.154 7.58229L200 7.58229L200 5L188.154 5L188.154 7.58229ZM96.308 7.79573L108.154 7.79573L108.154 5.21344L96.308 5.21344L96.308 7.79573ZM171.233 5.31865L160.666 5.30362L160.666 20.7222L163.078 20.7222L163.078 7.45904L171.233 7.45904L171.233 5.31865ZM186.059 5.30362L183.125 5.30362L172.972 20.7252L175.906 20.7252L186.059 5.30362ZM148.515 5.30362L154.212 14.0576L154.212 18.0948L148.598 9.45213L148.515 9.45213L148.515 20.7252L146.115 20.7252L146.115 5.30362L148.515 5.30362ZM155.922 20.7252L155.839 20.599L155.839 8.12641L155.839 5.30362L158.26 5.30362L158.26 20.7252L155.922 20.7252ZM56.6269 17.2681C55.8077 18.2842 54.6375 18.8013 53.119 18.8013C51.6004 18.8013 50.41 18.2602 49.5908 17.202C48.7716 16.1438 48.4005 14.782 48.4005 13.0325C48.4005 11.2829 48.7915 9.879 49.5908 8.84187C50.4328 7.76266 51.6004 7.22156 53.119 7.22156C54.6375 7.22156 55.8077 7.71758 56.6269 8.7547C57.4461 9.79183 57.8373 11.2167 57.8373 13.0325C57.8373 14.8482 57.4261 16.2521 56.6269 17.2681ZM100.975 20.3585L100.975 9.36795L103.378 9.36795L103.378 20.3585L100.975 20.3585ZM192.821 20.145L192.821 9.36795L195.225 9.36795L195.225 20.145L192.821 20.145ZM129.176 18.1249L130.39 15.1368L128.417 9.55734L125.874 9.55734L129.176 18.1249ZM131.229 17.5056L131.192 17.4004L130.056 20.4006L130.078 20.4637L129.459 21.9668L129.199 22.6552L129.179 22.6492L128.212 25L130.715 25L136.458 9.55734L133.915 9.55734L131.902 15.5095L131.908 15.5156L131.848 15.6719L131.229 17.5056ZM84.1197 11.5925C83.683 10.9432 83.0122 10.5163 82.3985 10.2427C81.7848 9.96919 80.977 9.8309 79.9808 9.8309L79.9808 9.85495C79.0825 9.87299 78.3472 10.0093 77.7743 10.2638C77.1578 10.5383 76.6317 10.9993 76.1959 11.6466C75.5545 12.5966 75.2331 13.7049 75.2311 14.9714C75.2311 16.9294 75.8399 18.4055 77.0579 19.3995C77.4821 19.74 77.9502 19.9885 78.4622 20.145C78.9626 20.2954 79.6089 20.3705 80.4004 20.3705L84.0512 20.3705L84.0512 18.1249L80.703 18.1249C79.8695 18.1249 78.6735 17.9806 78.3024 17.692C77.9313 17.4034 77.5174 16.8413 77.409 16.207L80.1035 16.207C80.1035 16.207 82.467 16.1649 82.6668 16.1679C83.8913 16.1829 84.8533 15.9575 84.7477 13.8201C84.7106 12.9934 84.4337 12.0585 84.1197 11.5925ZM110.446 20.4517L112.784 20.4517L112.784 9.8309L110.446 9.8309L110.446 20.4517ZM89.3147 13.306L89.349 13.306L89.349 20.3735L86.8599 20.3735L86.8599 9.85495L89.3147 9.85495L89.3147 13.306ZM92.3232 12.1006L90.8361 12.1006L90.8361 9.85495L92.152 9.85495C92.9455 9.85495 93.5506 9.91607 93.9674 10.0383C94.3947 10.1662 94.7743 10.3856 95.1063 10.6967C95.8028 11.3741 96.1519 12.4393 96.1539 13.8922L96.1539 20.3735L93.739 20.3735L93.739 13.5706C93.739 13.0505 93.6306 12.6777 93.4108 12.4463C93.191 12.2148 92.8285 12.1006 92.3232 12.1006ZM115.158 9.85495L117.619 9.85495L117.619 13.297L117.648 13.297L117.648 20.3735L115.158 20.3735L115.158 9.85495ZM119.255 9.85495L119.255 12.1006L120.622 12.1006C121.127 12.1006 121.49 12.2148 121.709 12.4463C121.929 12.6777 122.038 13.0505 122.038 13.5706L122.038 20.3735L124.452 20.3735L124.452 13.8922C124.452 12.4372 124.104 11.3721 123.408 10.6967C123.076 10.3856 122.696 10.1662 122.269 10.0383C121.852 9.91408 121.247 9.85294 120.453 9.85495L119.255 9.85495ZM77.409 13.9403C77.4775 13.297 77.5974 12.81 78.0626 12.4523C78.5907 12.0464 79.5926 12.0735 80.3376 12.0945L80.9913 12.0945C81.5193 12.1306 82.0188 12.2268 82.2472 12.4733C82.6525 12.9092 82.7324 13.2339 82.8009 13.9524L77.409 13.9403ZM164.688 20.7252L164.688 18.5668L171.564 18.5668L171.564 20.7252L164.688 20.7252Z" fill="rgb(255,255,255)" fill-rule="evenodd" />
			<path id="矢量_12" d="M176.377 5L178.863 8.92605L177.353 10.9462L173.443 5L176.377 5ZM110.589 7.17947L112.927 7.17947L112.927 5.00301L110.589 5.00301L110.589 7.17947ZM68.1495 9.5393L62.9316 9.5393L62.9316 11.6767L65.3351 11.7128L65.3351 11.6977L67.9668 11.6977C69.0144 11.6977 69.7936 11.8931 70.2846 12.302C70.7755 12.7108 71.0439 13.3391 71.0439 14.268C71.0439 15.1969 70.7955 15.8673 70.3046 16.2761C69.8136 16.685 69.0315 16.8804 67.9668 16.8804L65.3864 16.8804L62.9316 16.9495L62.9316 24.9609L65.3322 24.9609L65.3322 19.0418L68.1095 19.0418C71.6804 19.0418 73.4644 17.4425 73.4644 14.268C73.4644 11.0935 71.6775 9.5393 68.1495 9.5393ZM164.831 11.4362L164.831 13.5946L170.865 13.5946L170.865 11.4362L164.831 11.4362ZM183.596 20.4216L180.699 15.8462L182.12 13.7569L186.53 20.4216L183.596 20.4216Z" fill="rgb(255,255,255)" fill-rule="evenodd" />
		</g>
	</g>
</svg>