<svg viewBox="0 0 20 20" xmlns="http://www.w3.org/2000/svg" xmlns:xlink="http://www.w3.org/1999/xlink" width="20.000000" height="20.000000" fill="none" customFrame="#000000">
	<defs>
		<linearGradient id="paint_linear_6" x1="4" x2="13.8036652" y1="9.99999905" y2="9.42222786" gradientUnits="userSpaceOnUse">
			<stop stop-color="rgb(255,255,255)" offset="0" stop-opacity="0.858823538" />
			<stop stop-color="rgb(255,255,255)" offset="0.251694322" stop-opacity="0.800000012" />
			<stop stop-color="rgb(255,255,255)" offset="1" stop-opacity="1" />
		</linearGradient>
		<linearGradient id="paint_linear_7" x1="8.52435112" x2="7.46541119" y1="14.1905041" y2="10.4659195" gradientUnits="userSpaceOnUse">
			<stop stop-color="rgb(0,0,0)" offset="0" stop-opacity="0" />
			<stop stop-color="rgb(0,0,0)" offset="1" stop-opacity="1" />
		</linearGradient>
	</defs>
	<g id="编组 32">
		<rect id="矩形备份 5" width="20.000002" height="20.000000" x="0.000000" y="0.000000" rx="4.000000" fill="rgb(20,118,255)" />
		<rect id="矩形备份 5" width="19.583336" height="19.583334" x="0.208333" y="0.208333" rx="3.791667" stroke="rgb(210,45,38)" stroke-opacity="0" stroke-width="0.416666716" />
		<g style="mix-blend-mode:normal">
			<path id="路径" d="M14.5 4L14.5 7L10 7C8.34315 7 7 8.34315 7 10C7 11.6569 8.34315 13 10 13L14.5 13L14.5 16L10 16C6.68629 16 4 13.3137 4 10C4 6.68629 6.68629 4 10 4L14.5 4Z" fill="url(#paint_linear_6)" fill-rule="evenodd" />
		</g>
		<path id="矩形备份 6" d="M13 8.5L13 11.5L10.5 11.5C9.67157 11.5 9 10.8284 9 10C9 9.17157 9.67157 8.5 10.5 8.5L13 8.5Z" fill="rgb(255,255,255)" fill-rule="evenodd" />
		<g style="mix-blend-mode:soft-light">
			<path id="路径 42" d="M9.99934 7.00195C4.28826 7.00195 3.54022 12.1235 5.72748 14.2C7.91475 16.2765 9.75415 15.9833 11.0217 16C12.2893 16.0167 11.8674 13.0015 9.99934 13.0015C8.13129 13.0015 6.98706 11.333 6.98706 10C6.98706 8.66703 8.06079 7.00195 9.99934 7.00195Z" fill="url(#paint_linear_7)" fill-rule="evenodd" />
		</g>
	</g>
</svg>
